<?xml version="1.0" encoding="iso-8859-1"?>
<!-- Generator: Adobe Illustrator 20.0.0, SVG Export Plug-In . SVG Version: 6.00 Build 0)  -->
<svg version="1.1" id="Layer_1_1_" xmlns="http://www.w3.org/2000/svg" xmlns:xlink="http://www.w3.org/1999/xlink" x="0px" y="0px"
	 viewBox="0 0 64 64" style="enable-background:new 0 0 64 64;" xml:space="preserve">
<g id="Guide">
	<g>
	</g>
	<g>
	</g>
	<g>
	</g>
	<g>
	</g>
	<g>
	</g>
	<g>
	</g>
	<g>
	</g>
	<g>
	</g>
	<g>
	</g>
	<g>
	</g>
	<g>
	</g>
	<g>
	</g>
	<g>
	</g>
	<g>
	</g>
	<g>
	</g>
	<g>
	</g>
	<g>
	</g>
	<g>
	</g>
	<g>
	</g>
	<g>
	</g>
	<g>
	</g>
	<g>
	</g>
	<g>
	</g>
	<g>
	</g>
	<g>
	</g>
	<g>
	</g>
	<g>
	</g>
	<g>
	</g>
	<g>
	</g>
	<g>
	</g>
	<g>
	</g>
	<g>
	</g>
	<g>
	</g>
	<g>
	</g>
	<g>
	</g>
	<g>
	</g>
</g>
<path d="M11,43H9c0,4.242,1.809,8.305,4.962,11.146c1.221,1.101,2.585,1.961,4.038,2.598V64h2v-6.535
	c1.281,0.352,2.614,0.536,3.977,0.536c0.541,0,1.086-0.028,1.634-0.086c6.737-0.702,12.306-6.085,13.241-12.797
	c0.048-0.34,0.083-0.678,0.108-1.015c0.206-2.836,0.711-5.428,1.474-7.747L53.952,37c0.017,0,0.032,0,0.048,0
	c0.257,0,0.504-0.099,0.69-0.276C54.888,36.535,55,36.273,55,36V24c0-0.273-0.112-0.535-0.31-0.724
	c-0.198-0.188-0.453-0.296-0.738-0.275l-8.131,0.387c0.212-1.562,0.23-3.134,0.036-4.689c-1.009-8.118-7.646-14.671-15.782-15.583
	c-0.36-0.04-0.716-0.045-1.074-0.065V0h-2v3.048c-4.07,0.216-7.896,1.76-10.994,4.531C12.189,10.991,10,15.883,10,21h2
	c0-4.548,1.946-8.896,5.339-11.931c3.439-3.075,7.88-4.479,12.513-3.965c7.229,0.81,13.124,6.631,14.021,13.841
	c0.186,1.505,0.16,3.028-0.079,4.539l-5.847,0.278C34.612,23.923,32,26.662,32,30c0,1.043,0.255,2.028,0.708,2.893
	c0.996,1.905,2.947,3.234,5.239,3.344l0.402,0.019c-0.717,2.336-1.181,4.92-1.383,7.701c-0.022,0.292-0.053,0.585-0.095,0.884
	c-0.811,5.814-5.633,10.477-11.468,11.086c-3.744,0.386-7.331-0.77-10.103-3.266C12.567,50.198,11,46.677,11,43z M38.042,25.538
	L44.682,25c0.001,0,0.002,0,0.003,0L53,25.049v9.902L39.765,34c-0.001,0-0.002,0-0.003,0l-1.72,0.079
	C35.775,33.971,34,32.077,34,29.809S35.775,25.646,38.042,25.538z"/>
<path d="M18.293,37.293C18.105,37.48,18,37.734,18,38c0,3.309,2.691,6,6,6h3v-2h-3c-2.072,0-3.781-1.584-3.98-3.605l3.688-3.688
	C23.895,34.52,24,34.266,24,34v-7c0-0.228-0.077-0.447-0.219-0.625l-3.774-4.718C20.188,16.853,24.152,13,29,13v-2
	c-6.065,0-11,4.935-11,11c0,0.228,0.077,0.447,0.219,0.625L22,27.351v6.235L18.293,37.293z"/>
<rect x="57" y="29" width="2" height="2"/>
<rect x="61" y="29" width="2" height="2"/>
<rect x="61" y="33" width="2" height="2"/>
<rect x="61" y="25" width="2" height="2"/>
</svg>
